<svg width="42" height="42" viewBox="0 0 42 42" fill="none" xmlns="http://www.w3.org/2000/svg">
<path d="M21.0001 0C15.292 0 14.5806 0.0275625 12.3467 0.122063C10.1037 0.232313 8.58644 0.580125 7.24769 1.09987C5.84654 1.62884 4.57762 2.45702 3.52937 3.52669C2.45672 4.57248 1.62808 5.84211 1.10256 7.245C0.582811 8.58375 0.234998 10.101 0.124748 12.3441C0.0236856 14.5792 0.00268555 15.2893 0.00268555 20.9974C0.00268555 26.7054 0.0302481 27.4168 0.124748 29.6507C0.234998 31.8872 0.582811 33.411 1.10256 34.7497C1.63153 36.1509 2.45971 37.4198 3.52937 38.4681C4.57517 39.5407 5.8448 40.3694 7.24769 40.8949C8.58644 41.4081 10.1102 41.7624 12.3467 41.8727C14.5819 41.9737 15.292 41.9948 21.0001 41.9948C26.7081 41.9948 27.4195 41.9672 29.6534 41.8727C31.8899 41.7624 33.4137 41.4068 34.7524 40.8949C36.1536 40.3659 37.4225 39.5377 38.4708 38.4681C39.5448 37.4234 40.3736 36.1534 40.8976 34.7497C41.4108 33.411 41.7651 31.8872 41.8754 29.6507C41.9764 27.4155 41.9974 26.7054 41.9974 20.9974C41.9974 15.2893 41.9699 14.5779 41.8754 12.3441C41.7651 10.1076 41.4094 8.57588 40.8976 7.245C40.3686 5.84386 39.5404 4.57493 38.4708 3.52669C37.4261 2.45266 36.1561 1.6238 34.7524 1.09987C33.4137 0.580125 31.8899 0.232313 29.6534 0.122063C27.4182 0.021 26.7081 0 21.0001 0ZM21.0001 3.78C26.6058 3.78 27.2751 3.80756 29.4906 3.90206C31.5342 3.99788 32.6472 4.33913 33.3861 4.62788C34.2997 4.96509 35.1265 5.5018 35.8064 6.19894C36.5023 6.87596 37.037 7.70089 37.3709 8.61262C37.6596 9.35156 38.0009 10.4646 38.0967 12.5081C38.1912 14.7236 38.2187 15.3943 38.2187 20.9987C38.2187 26.6031 38.1912 27.2738 38.0888 29.4893C37.9786 31.5328 37.6373 32.6458 37.3499 33.3848C36.9522 34.3704 36.5086 35.0595 35.7762 35.805C35.094 36.4978 34.2677 37.0319 33.3559 37.3695C32.6262 37.6583 31.4974 37.9995 29.446 38.0953C27.2187 38.1898 26.5624 38.2174 20.9423 38.2174C15.3222 38.2174 14.6672 38.1898 12.4373 38.0874C10.3937 37.9772 9.26631 37.6359 8.52737 37.3485C7.52987 36.9508 6.84606 36.5072 6.11369 35.7748C5.37475 35.0359 4.90487 34.3324 4.54262 33.3546C4.24862 32.6248 3.91262 31.4961 3.80369 29.4446C3.72887 27.2436 3.69344 26.5611 3.69344 20.9672C3.69344 15.3759 3.72887 14.6921 3.80369 12.4635C3.91262 10.4121 4.24862 9.28594 4.54262 8.55356C4.90487 7.55475 5.37606 6.87225 6.11369 6.13331C6.84475 5.40225 7.52987 4.92975 8.52737 4.55962C9.26631 4.27219 10.3662 3.93094 12.4176 3.82856C14.6449 3.7485 15.3012 3.71963 20.9134 3.71963L21.0001 3.78ZM21.0001 10.2204C19.5843 10.2199 18.1824 10.4984 16.8743 11.0399C15.5662 11.5815 14.3777 12.3755 13.3766 13.3765C12.3755 14.3776 11.5815 15.5662 11.04 16.8742C10.4984 18.1823 10.22 19.5843 10.2205 21C10.22 22.4157 10.4984 23.8177 11.04 25.1258C11.5815 26.4338 12.3755 27.6224 13.3766 28.6235C14.3777 29.6245 15.5662 30.4185 16.8743 30.9601C18.1824 31.5016 19.5843 31.7801 21.0001 31.7796C22.4158 31.7801 23.8178 31.5016 25.1258 30.9601C26.4339 30.4185 27.6224 29.6245 28.6235 28.6235C29.6246 27.6224 30.4186 26.4338 30.9601 25.1258C31.5017 23.8177 31.7801 22.4157 31.7796 21C31.7801 19.5843 31.5017 18.1823 30.9601 16.8742C30.4186 15.5662 29.6246 14.3776 28.6235 13.3765C27.6224 12.3755 26.4339 11.5815 25.1258 11.0399C23.8178 10.4984 22.4158 10.2199 21.0001 10.2204V10.2204ZM21.0001 27.9996C17.1308 27.9996 14.0005 24.8692 14.0005 21C14.0005 17.1308 17.1308 14.0004 21.0001 14.0004C24.8693 14.0004 27.9996 17.1308 27.9996 21C27.9996 24.8692 24.8693 27.9996 21.0001 27.9996ZM34.7341 9.78994C34.7334 10.4589 34.4671 11.1002 33.9939 11.5729C33.5206 12.0457 32.8791 12.3113 32.2101 12.3113C31.8794 12.3113 31.5518 12.2461 31.2463 12.1195C30.9407 11.993 30.663 11.8074 30.4291 11.5735C30.1953 11.3397 30.0097 11.062 29.8832 10.7564C29.7566 10.4508 29.6914 10.1233 29.6914 9.79256C29.6914 9.4618 29.7566 9.13428 29.8832 8.8287C30.0097 8.52312 30.1953 8.24546 30.4291 8.01158C30.663 7.7777 30.9407 7.59217 31.2463 7.4656C31.5518 7.33902 31.8794 7.27387 32.2101 7.27387C33.5974 7.27387 34.7341 8.40263 34.7341 9.78994V9.78994Z" fill="black"/>
</svg>
