<svg width="41" height="40" viewBox="0 0 41 40" fill="none" xmlns="http://www.w3.org/2000/svg">
<path fill-rule="evenodd" clip-rule="evenodd" d="M41 20C41 31.045 31.8211 40 20.5 40C9.17888 40 0 31.045 0 20C0 8.955 9.17888 0 20.5 0C31.8211 0 41 8.955 41 20ZM21.2346 14.765C19.241 15.5733 15.2554 17.2483 9.27967 19.7883C8.30933 20.165 7.80025 20.5333 7.75413 20.8933C7.67554 21.5033 8.45796 21.7433 9.52054 22.0683C9.66575 22.1133 9.81608 22.1583 9.96983 22.2083C11.017 22.54 12.4247 22.9283 13.1559 22.9433C13.8204 22.9567 14.5618 22.69 15.3801 22.1433C20.963 18.465 23.8449 16.6067 24.026 16.5667C24.1541 16.5383 24.3318 16.5017 24.4514 16.6067C24.571 16.71 24.559 16.9067 24.547 16.96C24.4685 17.2817 21.4037 20.0633 19.815 21.5033C19.3195 21.9517 18.9693 22.27 18.8976 22.3433C18.737 22.505 18.573 22.66 18.4158 22.8083C17.4421 23.7217 16.7143 24.4083 18.4568 25.5283C19.2939 26.0667 19.9636 26.5117 20.6315 26.955C21.361 27.44 22.0888 27.9233 23.0318 28.5267C23.2709 28.68 23.4998 28.8383 23.7236 28.9933C24.5727 29.585 25.3363 30.115 26.2793 30.0317C26.826 29.9817 27.3931 29.48 27.6801 27.9817C28.3583 24.4383 29.6943 16.765 30.0035 13.6017C30.0223 13.339 30.0108 13.0751 29.9693 12.815C29.9444 12.6049 29.8396 12.4116 29.6755 12.2733C29.4312 12.0783 29.0519 12.0367 28.8811 12.04C28.1106 12.0533 26.9285 12.455 21.2346 14.765Z" fill="#232323"/>
</svg>
