<svg width="42" height="42" viewBox="0 0 42 42" fill="none" xmlns="http://www.w3.org/2000/svg">
<path d="M19.9474 0.00659975C16.5769 0.0472872 9.33062 0.601162 5.27762 4.31947C2.26281 7.30672 1.21019 11.7233 1.08681 17.1846C0.984436 22.6262 0.861061 32.8453 10.7114 35.6278V39.8659C10.7114 39.8659 10.6497 41.5617 11.7706 41.9095C13.1513 42.3465 13.9375 41.0419 15.25 39.6402L17.6978 36.8721C24.4375 37.4325 29.5996 36.141 30.1941 35.9494C31.5617 35.5123 39.2648 34.528 40.5235 24.3075C41.815 13.7524 39.8948 7.10197 36.4285 4.09372H36.4075C35.3614 3.13035 31.1575 0.0669747 21.7653 0.0328497C21.7653 0.0328497 21.0683 -0.0144002 19.9474 0.00528725V0.00659975ZM20.0629 2.97416C21.0198 2.9676 21.6012 3.00829 21.6012 3.00829C29.551 3.02929 33.3454 5.42197 34.2406 6.22785C37.1596 8.72947 38.6637 14.725 37.5625 23.5371C36.5164 32.0815 30.2689 32.6222 29.1126 32.991C28.6204 33.1485 24.0739 34.2694 18.3462 33.9006C18.3462 33.9006 14.0806 39.0482 12.7471 40.3738C12.5357 40.6062 12.289 40.6744 12.1315 40.6403C11.9057 40.5852 11.8375 40.3056 11.8506 39.9223L11.8913 32.8887C3.53725 30.5787 4.02944 21.8623 4.11869 17.3093C4.22106 12.7562 5.0755 9.03135 7.61912 6.50872C11.0434 3.41254 17.1964 2.99516 20.0603 2.97416H20.0629ZM20.6929 7.52591C20.6242 7.52522 20.556 7.53814 20.4922 7.56393C20.4285 7.58973 20.3705 7.62788 20.3216 7.6762C20.2726 7.72451 20.2338 7.78203 20.2072 7.84544C20.1806 7.90885 20.1668 7.9769 20.1666 8.04566C20.1666 8.33966 20.4055 8.57197 20.6929 8.57197C21.9943 8.54722 23.2877 8.78036 24.4985 9.25792C25.7093 9.73548 26.8136 10.448 27.7476 11.3545C29.6547 13.2064 30.5839 15.6949 30.6194 18.9486C30.6194 19.236 30.8517 19.4749 31.1457 19.4749V19.4539C31.2842 19.4543 31.4173 19.3998 31.5159 19.3025C31.6145 19.2051 31.6706 19.0727 31.672 18.9342C31.7357 17.4027 31.4874 15.8742 30.942 14.4417C30.3967 13.0092 29.5657 11.7025 28.4997 10.6011C26.422 8.57066 23.7891 7.5246 20.6929 7.5246V7.52591ZM13.7747 8.72947C13.4032 8.67519 13.0244 8.74976 12.7011 8.94079H12.6736C11.9232 9.38066 11.2472 9.93661 10.6707 10.588C10.1916 11.1418 9.93175 11.7023 9.8635 12.2417C9.82281 12.5633 9.85037 12.8848 9.94619 13.192L9.98031 13.213C10.5197 14.7985 11.2246 16.3236 12.0856 17.7595C13.1947 19.7767 14.5596 21.6423 16.1464 23.31L16.1937 23.3783L16.2685 23.4334L16.3158 23.4885L16.3709 23.5358C18.0446 25.1273 19.9147 26.4986 21.9359 27.6163C24.2459 28.8737 25.6476 29.4683 26.4889 29.715V29.7282C26.7357 29.803 26.9601 29.8371 27.1859 29.8371C27.9029 29.7846 28.5816 29.4935 29.1139 29.0102C29.7623 28.4336 30.3121 27.7548 30.7414 27.0008V26.9877C31.1444 26.229 31.0079 25.5111 30.4264 25.0255C29.262 24.0076 28.0028 23.1036 26.6661 22.3257C25.771 21.84 24.8614 22.134 24.4926 22.6262L23.7064 23.6172C23.3035 24.1093 22.5711 24.0411 22.5711 24.0411L22.5501 24.0542C17.0888 22.659 15.6319 17.1295 15.6319 17.1295C15.6319 17.1295 15.5637 16.3774 16.069 15.9942L17.0534 15.2014C17.5246 14.8182 17.8527 13.9099 17.3474 13.0135C16.5748 11.6749 15.6728 10.4154 14.6541 9.25316C14.4314 8.97915 14.119 8.79272 13.7721 8.72685L13.7747 8.72947ZM21.6012 10.2887C20.9043 10.2887 20.9042 11.3413 21.6077 11.3413C22.4744 11.3554 23.3297 11.5401 24.1249 11.8849C24.9201 12.2297 25.6396 12.7278 26.2422 13.3508C26.7919 13.9572 27.2143 14.6677 27.4844 15.4403C27.7545 16.213 27.8668 17.0319 27.8146 17.8487C27.817 17.987 27.8734 18.1188 27.9718 18.2159C28.0701 18.313 28.2026 18.3678 28.3409 18.3685L28.3619 18.396C28.5011 18.395 28.6344 18.3392 28.7329 18.2407C28.8314 18.1423 28.8872 18.009 28.8882 17.8697C28.9354 15.7842 28.2871 14.0346 27.0152 12.6328C25.7369 11.2311 23.9532 10.4449 21.676 10.2887H21.6012ZM22.4635 13.1185C21.7456 13.0975 21.718 14.1711 22.4294 14.1921C24.1593 14.2813 24.9993 15.1555 25.1095 16.9536C25.1119 17.0901 25.1676 17.2202 25.2648 17.3161C25.3619 17.412 25.4927 17.4661 25.6292 17.4668H25.6502C25.7204 17.4638 25.7893 17.4468 25.8529 17.4169C25.9164 17.387 25.9734 17.3447 26.0204 17.2925C26.0675 17.2404 26.1036 17.1793 26.1268 17.113C26.15 17.0467 26.1598 16.9765 26.1556 16.9063C26.0322 14.5622 24.7538 13.2418 22.4845 13.1198H22.4635V13.1185Z" fill="#232323"/>
</svg>
