<svg width="41" height="40" viewBox="0 0 41 40" fill="none" xmlns="http://www.w3.org/2000/svg">
<path fill-rule="evenodd" clip-rule="evenodd" d="M29.7506 23.9701C29.2415 23.7217 26.7457 22.5251 26.281 22.3584C25.8163 22.1934 25.4781 22.1117 25.1381 22.6084C24.7999 23.1017 23.8278 24.2184 23.5323 24.5484C23.235 24.8801 22.9395 24.9201 22.4321 24.6734C21.9247 24.4234 20.2882 23.9017 18.3492 22.2151C16.8407 20.9017 15.8209 19.2801 15.5253 18.7834C15.2298 18.2884 15.4929 18.0201 15.7474 17.7734C15.9763 17.5517 16.2548 17.1951 16.5093 16.9067C16.7639 16.6167 16.8476 16.4101 17.0167 16.0784C17.1875 15.7484 17.1021 15.4601 16.974 15.2117C16.8476 14.9634 15.8328 12.5251 15.4092 11.5334C14.9975 10.5684 14.5789 10.7001 14.268 10.6834C13.9707 10.6701 13.6325 10.6667 13.2942 10.6667C12.956 10.6667 12.4059 10.7901 11.9412 11.2867C11.4749 11.7817 10.1646 12.9801 10.1646 15.4184C10.1646 17.8551 11.9822 20.2101 12.2368 20.5417C12.4913 20.8717 15.8158 25.8751 20.9083 28.0201C22.1212 28.5301 23.0659 28.8351 23.8022 29.0617C25.0185 29.4401 26.1255 29.3867 27.0002 29.2584C27.974 29.1167 30.0035 28.0601 30.4271 26.9034C30.8491 25.7467 30.8491 24.7551 30.7227 24.5484C30.5962 24.3417 30.258 24.2184 29.7489 23.9701H29.7506ZM20.488 36.3084H20.4812C17.4565 36.3089 14.4873 35.5157 11.8849 34.0117L11.2699 33.6551L4.87729 35.2917L6.58392 29.2117L6.18246 28.5884C4.49144 25.9623 3.59655 22.923 3.60117 19.8217C3.60458 10.7384 11.1793 3.3484 20.4949 3.3484C25.0049 3.3484 29.245 5.06507 32.4327 8.1784C34.005 9.70604 35.2512 11.5227 36.0993 13.5232C36.9473 15.5238 37.3803 17.6685 37.3732 19.8334C37.3698 28.9167 29.795 36.3084 20.488 36.3084ZM34.8585 5.8134C32.9763 3.96494 30.7367 2.4993 28.2696 1.5014C25.8026 0.503508 23.157 -0.00679375 20.4863 6.82959e-05C9.28992 6.82959e-05 0.17425 8.89174 0.170833 19.8201C0.169125 23.3134 1.10358 26.7234 2.88196 29.7284L0 40.0001L10.7693 37.2434C13.7485 38.8269 17.0869 39.6567 20.4795 39.6567H20.488C31.6845 39.6567 40.8001 30.7651 40.8035 19.8351C40.8118 17.2305 40.2906 14.6502 39.2702 12.2435C38.2497 9.83668 36.7503 7.65119 34.8585 5.8134Z" fill="#232323"/>
</svg>
